<svg xmlns="http://www.w3.org/2000/svg" version="1.1" xmlns:xlink="http://www.w3.org/1999/xlink" width="2000" height="792" viewBox="0 0 2000 792"><g transform="matrix(1,0,0,1,-1.2121212121212466,-0.510726450983725)"><svg viewBox="0 0 396 157" data-background-color="#000000" preserveAspectRatio="xMidYMid meet" height="792" width="2000" xmlns="http://www.w3.org/2000/svg" xmlns:xlink="http://www.w3.org/1999/xlink"><g id="tight-bounds" transform="matrix(1,0,0,1,0.2400000000000091,0.10124249091470006)"><svg viewBox="0 0 395.52 156.7975150181706" height="156.7975150181706" width="395.52"><g><svg viewBox="0 0 395.52 156.7975150181706" height="156.7975150181706" width="395.52"><g transform="matrix(1,0,0,1,0,96.9071546855559)"><svg viewBox="0 0 395.52 59.89036033261472" height="59.89036033261472" width="395.52"><g id="textblocktransform"><svg viewBox="0 0 395.52 59.89036033261472" height="59.89036033261472" width="395.52" id="textblock"><g><svg viewBox="0 0 395.52 59.89036033261472" height="59.89036033261472" width="395.52"><g transform="matrix(1,0,0,1,0,0)"><svg width="395.52" viewBox="2.49 -36.01 237.79999999999998 36.01" height="59.89036033261472" data-palette-color="#ffffff"><path d="M2.49-21.19L2.49-26 8.84-26 8.84-34.01 13.65-34.01 13.65-26 22.19-26 22.19-21.19 13.65-21.19 13.65-4.81 22.19-4.81 22.19 0 13.65 0Q12.67 0 11.79-0.38 10.91-0.76 10.25-1.4 9.59-2.05 9.22-2.93 8.84-3.81 8.84-4.81L8.84-4.81 8.84-21.19 2.49-21.19ZM52.19-21.19L52.19-10.55 34.98-10.55 34.98-4.81 52.19-4.81 52.19 0 34.98 0Q34.01 0 33.13-0.38 32.25-0.76 31.6-1.4 30.95-2.05 30.58-2.93 30.2-3.81 30.2-4.81L30.2-4.81 30.2-21.19Q30.2-22.19 30.58-23.07 30.95-23.95 31.6-24.6 32.25-25.24 33.13-25.62 34.01-26 34.98-26L34.98-26 47.39-26Q48.39-26 49.27-25.62 50.14-25.24 50.79-24.6 51.44-23.95 51.82-23.07 52.19-22.19 52.19-21.19L52.19-21.19ZM47.39-21.19L34.98-21.19 34.98-15.36 47.39-15.36 47.39-21.19ZM77.39-21.19L64.99-21.19 64.99-4.81 77.39-4.81 77.39-9.2 82.2-9.2 82.2-4.81Q82.2-3.81 81.82-2.93 81.44-2.05 80.79-1.4 80.15-0.76 79.27-0.38 78.39 0 77.39 0L77.39 0 64.99 0Q64.01 0 63.13-0.38 62.25-0.76 61.6-1.4 60.96-2.05 60.58-2.93 60.2-3.81 60.2-4.81L60.2-4.81 60.2-21.19Q60.2-22.19 60.58-23.07 60.96-23.95 61.6-24.6 62.25-25.24 63.13-25.62 64.01-26 64.99-26L64.99-26 77.39-26Q78.39-26 79.27-25.62 80.15-25.24 80.79-24.6 81.44-23.95 81.82-23.07 82.2-22.19 82.2-21.19L82.2-21.19 82.2-16.8 77.39-16.8 77.39-21.19ZM113.2-21.19L113.2 0 108.39 0 108.39-21.19 94.99-21.19 94.99 0 90.2 0 90.2-36.01 94.99-36.01 94.99-21.41Q95.04-22.36 95.43-23.21 95.82-24.05 96.46-24.67 97.11-25.29 97.97-25.65 98.82-26 99.8-26L99.8-26 108.39-26Q109.39-26 110.27-25.62 111.15-25.24 111.8-24.6 112.44-23.95 112.82-23.07 113.2-22.19 113.2-21.19L113.2-21.19ZM135.68-4.81L151.89-4.81 151.89-10.84 140.49-10.84Q139.49-10.84 138.61-11.22 137.73-11.6 137.08-12.24 136.44-12.89 136.06-13.77 135.68-14.65 135.68-15.65L135.68-15.65 135.68-21.19Q135.68-22.19 136.06-23.07 136.44-23.95 137.08-24.6 137.73-25.24 138.61-25.62 139.49-26 140.49-26L140.49-26 155.7-26 155.7-21.19 140.49-21.19 140.49-15.65 151.89-15.65Q152.89-15.65 153.76-15.27 154.63-14.89 155.29-14.25 155.94-13.6 156.32-12.72 156.7-11.84 156.7-10.84L156.7-10.84 156.7-4.81Q156.7-3.81 156.32-2.93 155.94-2.05 155.29-1.4 154.63-0.76 153.76-0.38 152.89 0 151.89 0L151.89 0 135.68 0 135.68-4.81ZM186.19-21.19L186.19-10.55 168.98-10.55 168.98-4.81 186.19-4.81 186.19 0 168.98 0Q168 0 167.12-0.38 166.24-0.76 165.6-1.4 164.95-2.05 164.57-2.93 164.19-3.81 164.19-4.81L164.19-4.81 164.19-21.19Q164.19-22.19 164.57-23.07 164.95-23.95 165.6-24.6 166.24-25.24 167.12-25.62 168-26 168.98-26L168.98-26 181.38-26Q182.38-26 183.26-25.62 184.14-25.24 184.79-24.6 185.43-23.95 185.81-23.07 186.19-22.19 186.19-21.19L186.19-21.19ZM181.38-21.19L168.98-21.19 168.98-15.36 181.38-15.36 181.38-21.19ZM194.2-36.01L198.98-36.01 198.98 0 194.2 0 194.2-36.01ZM206.99-36.01L211.77-36.01 211.77 0 206.99 0 206.99-36.01ZM219.26-4.81L235.48-4.81 235.48-10.84 224.07-10.84Q223.07-10.84 222.19-11.22 221.32-11.6 220.67-12.24 220.02-12.89 219.64-13.77 219.26-14.65 219.26-15.65L219.26-15.65 219.26-21.19Q219.26-22.19 219.64-23.07 220.02-23.95 220.67-24.6 221.32-25.24 222.19-25.62 223.07-26 224.07-26L224.07-26 239.28-26 239.28-21.19 224.07-21.19 224.07-15.65 235.48-15.65Q236.48-15.65 237.34-15.27 238.21-14.89 238.87-14.25 239.53-13.6 239.91-12.72 240.29-11.84 240.29-10.84L240.29-10.84 240.29-4.81Q240.29-3.81 239.91-2.93 239.53-2.05 238.87-1.4 238.21-0.76 237.34-0.38 236.48 0 235.48 0L235.48 0 219.26 0 219.26-4.81Z" opacity="1" transform="matrix(1,0,0,1,0,0)" fill="#ffffff" class="wordmark-text-0" data-fill-palette-color="primary" id="text-0"></path></svg></g></svg></g></svg></g></svg></g><g transform="matrix(1,0,0,1,144.8798818744428,0)"><svg viewBox="0 0 105.76023625111439 82.76847797967355" height="82.76847797967355" width="105.76023625111439"><g><svg xmlns="http://www.w3.org/2000/svg" xmlns:xlink="http://www.w3.org/1999/xlink" version="1.1" x="8" y="0" viewBox="50 66 412.1 380" style="enable-background:new 0 0 512 512;" xml:space="preserve" height="82.76847797967355" width="89.76023625111439" class="icon-icon-0" data-fill-palette-color="accent" id="icon-0"><g fill="#ffffff" data-fill-palette-color="accent"><path d="M50 326.9C50 339.7 60.7 350 73.6 350H438.5C451.3 350 462.1 339.7 462.1 326.9V306H50z" fill="#ffffff" data-fill-palette-color="accent"></path><path d="M263.2 179.2C263.2 174.7 259.5 171 255 171S246.8 174.7 246.8 179.2 250.5 187.4 255 187.4C259.6 187.4 263.2 183.7 263.2 179.2" fill="#ffffff" data-fill-palette-color="accent"></path><path d="M255.1 116.1C250.6 116.1 246.9 119.8 246.9 124.3S250.6 132.5 255.1 132.5 263.3 128.8 263.3 124.3C263.2 119.8 259.6 116.1 255.1 116.1" fill="#ffffff" data-fill-palette-color="accent"></path><path d="M255.1 227.7C250.6 227.7 246.9 231.4 246.9 235.9S250.6 244.1 255.1 244.1 263.3 240.4 263.3 235.9C263.2 231.4 259.6 227.7 255.1 227.7" fill="#ffffff" data-fill-palette-color="accent"></path><path d="M200.2 171C195.7 171 192 174.7 192 179.2S195.7 187.4 200.2 187.4 208.4 183.7 208.4 179.2C208.4 174.6 204.7 171 200.2 171" fill="#ffffff" data-fill-palette-color="accent"></path><path d="M200.2 132.5C204.7 132.5 208.4 128.8 208.4 124.3S204.7 116.1 200.2 116.1 192 119.8 192 124.3 195.7 132.5 200.2 132.5" fill="#ffffff" data-fill-palette-color="accent"></path><path d="M200.2 227.7C195.7 227.7 192 231.4 192 235.9S195.7 244.1 200.2 244.1 208.4 240.4 208.4 235.9 204.7 227.7 200.2 227.7" fill="#ffffff" data-fill-palette-color="accent"></path><path d="M438.4 66H73.6C60.7 66 50.2 76.4 50 89.2V294H462V89.2C461.8 76.4 451.3 66 438.4 66M291.6 124.3C291.6 113.2 300.6 104.1 311.8 104.1S332 113.1 332 124.3 323 144.5 311.8 144.5 291.6 135.5 291.6 124.3M200.2 256.1C189 256.1 180 247.1 180 235.9S189 215.7 200.2 215.7 220.4 224.7 220.4 235.9 211.3 256.1 200.2 256.1M275.2 235.9C275.2 247.1 266.2 256.1 255.1 256.2 243.9 256.2 234.9 247.2 234.8 236.1 234.8 234.3 235 232.5 235.5 230.8L203.8 199C192.8 201 182.3 193.8 180.2 182.8 180 181.6 179.9 180.4 179.9 179.1 179.9 170.4 186 163 193 160.2V143.2C186 140.4 179.9 133 179.9 124.3 179.9 113.2 188.9 104.1 200.1 104.1S220.3 113.1 220.3 124.3C220.4 133.6 214.1 141.6 205.1 143.8V159.6C215.9 162.3 222.5 173.3 219.8 184.1 219 187.5 217.3 190.5 214.9 193L242.3 220.3C244.6 218.4 247.3 217 250.2 216.3V198.6C239.4 195.8 232.9 184.8 235.7 174S249.5 156.7 260.3 159.5 277.6 173.3 274.8 184.1C273.1 190.5 268.4 195.7 262.2 198V217C269.9 219.9 275.2 227.5 275.2 235.9M319 198.1V217C326 219.8 332.1 227.2 332.1 235.9 332.1 247 323.1 256.1 311.9 256.1 300.8 256.1 291.7 247.1 291.7 235.9 291.6 226.6 297.9 218.6 306.9 216.4V198.7C296.1 196 289.5 185 292.3 174.2 292.6 172.9 293.1 171.6 293.7 170.3L265.2 141.7C255.5 147.4 243.1 144.2 237.4 134.6 231.7 124.9 234.9 112.5 244.5 106.8 254.2 101.1 266.6 104.3 272.3 113.9 275.7 119.7 276.1 126.8 273.2 132.8L301.8 161.6C304.8 159.9 308.2 159 311.7 159 322.9 159 331.9 168 332 179.2 332.1 187.8 326 195.3 319 198.1" fill="#ffffff" data-fill-palette-color="accent"></path><path d="M311.8 132.5C316.3 132.5 320 128.8 320 124.3S316.3 116.1 311.8 116.1 303.6 119.8 303.6 124.3 307.3 132.5 311.8 132.5" fill="#ffffff" data-fill-palette-color="accent"></path><path d="M311.8 171C307.3 171 303.6 174.7 303.6 179.2S307.3 187.4 311.8 187.4 320 183.7 320 179.2C320 174.6 316.3 171 311.8 171" fill="#ffffff" data-fill-palette-color="accent"></path><path d="M311.8 227.7C307.3 227.7 303.6 231.4 303.6 235.9S307.3 244.1 311.8 244.1 320 240.4 320 235.9 316.3 227.7 311.8 227.7" fill="#ffffff" data-fill-palette-color="accent"></path><path d="M351.2 434H318V356H194V434H166.1C162.8 434 160.1 436.7 160.1 440S162.8 446 166.1 446H351.1C354.4 446 357.1 443.3 357.1 440S354.5 434 351.2 434" fill="#ffffff" data-fill-palette-color="accent"></path></g></svg></g></svg></g><g><rect width="144.8798818744428" height="5.40097450164706" y="76.36750347802649" x="250.6401181255572" fill="#ffffff" data-fill-palette-color="accent"></rect><rect width="144.8798818744428" height="5.40097450164706" y="76.36750347802649" x="0" fill="#ffffff" data-fill-palette-color="accent"></rect><rect width="144.8798818744428" height="5.40097450164706" y="65.56555447473237" x="250.6401181255572" fill="#ffffff" data-fill-palette-color="accent"></rect><rect width="144.8798818744428" height="5.40097450164706" y="65.56555447473237" x="0" fill="#ffffff" data-fill-palette-color="accent"></rect></g></svg></g><defs></defs></svg><rect width="395.52" height="156.7975150181706" fill="none" stroke="none" visibility="hidden"></rect></g></svg></g></svg>